<svg width="23" height="23" viewBox="0 0 23 23" fill="none" xmlns="http://www.w3.org/2000/svg">
<path d="M4.93893 9.59092C4.93776 8.75735 5.10151 7.93178 5.42077 7.16176C5.74002 6.39175 6.20846 5.6925 6.79911 5.10431C7.38976 4.51611 8.09095 4.05058 8.86228 3.73453C9.63362 3.41848 10.4599 3.25815 11.2934 3.26279C14.7739 3.28916 17.56 6.18076 17.56 9.67002V10.294C17.56 13.4405 18.2192 15.2687 18.7993 16.2706C18.8609 16.3773 18.8934 16.4983 18.8935 16.6215C18.8936 16.7448 18.8613 16.8658 18.7999 16.9727C18.7385 17.0795 18.6501 17.1683 18.5435 17.2302C18.437 17.2921 18.316 17.3249 18.1928 17.3253H4.30612C4.1829 17.3249 4.06197 17.2921 3.95542 17.2302C3.84888 17.1683 3.76047 17.0795 3.69905 16.9727C3.63763 16.8658 3.60536 16.7448 3.60547 16.6215C3.60558 16.4983 3.63806 16.3773 3.69967 16.2706C4.27975 15.2687 4.93893 13.4405 4.93893 10.294V9.59092Z" stroke="#FAA107" stroke-width="1.35" stroke-linecap="round" stroke-linejoin="round"/>
<path d="M8.4375 17.3252V18.0283C8.4375 18.7742 8.73382 19.4896 9.26126 20.0171C9.78871 20.5445 10.5041 20.8408 11.25 20.8408C11.9959 20.8408 12.7113 20.5445 13.2387 20.0171C13.7662 19.4896 14.0625 18.7742 14.0625 18.0283V17.3252" stroke="#FAA107" stroke-width="1.35" stroke-linecap="round" stroke-linejoin="round"/>
</svg>
