<svg width="23" height="23" viewBox="0 0 23 23" fill="none" xmlns="http://www.w3.org/2000/svg">
<path d="M4.93942 9.39072C4.93825 8.55715 5.102 7.73158 5.42126 6.96157C5.74051 6.19155 6.20895 5.49231 6.7996 4.90411C7.39025 4.31591 8.09144 3.85038 8.86277 3.53433C9.63411 3.21828 10.4603 3.05796 11.2939 3.0626C14.7744 3.08897 17.5605 5.98057 17.5605 9.46982V10.0938C17.5605 13.2403 18.2197 15.0685 18.7998 16.0704C18.8614 16.1771 18.8939 16.2981 18.894 16.4214C18.8941 16.5446 18.8618 16.6656 18.8004 16.7725C18.739 16.8793 18.6506 16.9681 18.544 17.03C18.4375 17.0919 18.3165 17.1247 18.1933 17.1251H4.30661C4.18339 17.1247 4.06245 17.0919 3.95591 17.03C3.84937 16.9681 3.76096 16.8793 3.69954 16.7725C3.63812 16.6656 3.60585 16.5446 3.60596 16.4214C3.60607 16.2981 3.63855 16.1771 3.70016 16.0704C4.28024 15.0685 4.93942 13.2403 4.93942 10.0938V9.39072Z" stroke="black" stroke-width="1.35" stroke-linecap="round" stroke-linejoin="round"/>
<path d="M8.4375 17.125V17.8281C8.4375 18.574 8.73382 19.2894 9.26126 19.8169C9.78871 20.3443 10.5041 20.6406 11.25 20.6406C11.9959 20.6406 12.7113 20.3443 13.2387 19.8169C13.7662 19.2894 14.0625 18.574 14.0625 17.8281V17.125" stroke="black" stroke-width="1.35" stroke-linecap="round" stroke-linejoin="round"/>
</svg>
