<svg width="23" height="23" viewBox="0 0 23 23" fill="none" xmlns="http://www.w3.org/2000/svg">
<path d="M18.9844 6.57812H3.51562C3.1273 6.57812 2.8125 6.89292 2.8125 7.28125V18.5313C2.8125 18.9196 3.1273 19.2344 3.51562 19.2344H18.9844C19.3727 19.2344 19.6875 18.9196 19.6875 18.5313V7.28125C19.6875 6.89292 19.3727 6.57812 18.9844 6.57812Z" stroke="black" stroke-width="1.35" stroke-linecap="round" stroke-linejoin="round"/>
<path d="M14.7656 6.57812V5.17188C14.7656 4.79891 14.6175 4.44123 14.3537 4.17751C14.09 3.91378 13.7323 3.76563 13.3594 3.76562H9.14063C8.76766 3.76563 8.40998 3.91378 8.14626 4.17751C7.88253 4.44123 7.73438 4.79891 7.73438 5.17188V6.57812" stroke="black" stroke-width="1.35" stroke-linecap="round" stroke-linejoin="round"/>
<path d="M19.6875 11.3506C17.1231 12.8337 14.2124 13.6129 11.25 13.6094C8.28708 13.6171 5.37528 12.8376 2.8125 11.3506" stroke="black" stroke-width="1.35" stroke-linecap="round" stroke-linejoin="round"/>
<path d="M10.1953 10.7969H12.3047" stroke="black" stroke-width="1.35" stroke-linecap="round" stroke-linejoin="round"/>
</svg>
