<svg width="32" height="33" viewBox="0 0 32 33" fill="none" xmlns="http://www.w3.org/2000/svg">
<path d="M12.1821 13.4756H20.0571" stroke="black" stroke-opacity="0.5" stroke-width="1.8" stroke-linecap="round" stroke-linejoin="round"/>
<path d="M12.1821 17.4131H20.0571" stroke="black" stroke-opacity="0.5" stroke-width="1.8" stroke-linecap="round" stroke-linejoin="round"/>
<path d="M18.7897 24.7836L16.9687 27.8229C16.8795 27.9679 16.7546 28.0877 16.606 28.1708C16.4573 28.2539 16.2899 28.2975 16.1196 28.2975C15.9494 28.2975 15.7819 28.2539 15.6333 28.1708C15.4847 28.0877 15.3598 27.9679 15.2706 27.8229L13.4495 24.7836C13.3639 24.6377 13.2416 24.5167 13.0949 24.4326C12.9481 24.3484 12.782 24.304 12.6128 24.3037H5.2915C5.03043 24.3037 4.78005 24.2 4.59545 24.0154C4.41084 23.8308 4.30713 23.5804 4.30713 23.3193V7.56934C4.30713 7.30826 4.41084 7.05788 4.59545 6.87328C4.78005 6.68867 5.03043 6.58496 5.2915 6.58496H26.9478C27.2088 6.58496 27.4592 6.68867 27.6438 6.87328C27.8284 7.05788 27.9321 7.30826 27.9321 7.56934V23.3193C27.9321 23.5804 27.8284 23.8308 27.6438 24.0154C27.4592 24.2 27.2088 24.3037 26.9478 24.3037H19.6265C19.4573 24.304 19.2911 24.3484 19.1444 24.4326C18.9976 24.5167 18.8754 24.6377 18.7897 24.7836V24.7836Z" stroke="black" stroke-opacity="0.5" stroke-width="1.8" stroke-linecap="round" stroke-linejoin="round"/>
</svg>
