<svg width="29" height="30" viewBox="0 0 29 30" fill="none" xmlns="http://www.w3.org/2000/svg">
<path d="M14.1751 16.4039C14.909 16.4039 15.504 15.8089 15.504 15.075C15.504 14.3411 14.909 13.7461 14.1751 13.7461C13.4412 13.7461 12.8462 14.3411 12.8462 15.075C12.8462 15.8089 13.4412 16.4039 14.1751 16.4039Z" fill="black" fill-opacity="0.5"/>
<path d="M21.2625 16.4039C21.9964 16.4039 22.5914 15.8089 22.5914 15.075C22.5914 14.3411 21.9964 13.7461 21.2625 13.7461C20.5286 13.7461 19.9336 14.3411 19.9336 15.075C19.9336 15.8089 20.5286 16.4039 21.2625 16.4039Z" fill="black" fill-opacity="0.5"/>
<path d="M7.0877 16.4039C7.82163 16.4039 8.4166 15.8089 8.4166 15.075C8.4166 14.3411 7.82163 13.7461 7.0877 13.7461C6.35376 13.7461 5.75879 14.3411 5.75879 15.075C5.75879 15.8089 6.35376 16.4039 7.0877 16.4039Z" fill="black" fill-opacity="0.5"/>
</svg>
