<svg width="23" height="23" viewBox="0 0 23 23" fill="none" xmlns="http://www.w3.org/2000/svg">
<path d="M12.0083 9.19336V14.0148" stroke="black" stroke-linecap="round" stroke-linejoin="round"/>
<path d="M15.9687 9.19336H13.9023V14.0148" stroke="black" stroke-linecap="round" stroke-linejoin="round"/>
<path d="M15.4521 11.6045H13.9023" stroke="black" stroke-linecap="round" stroke-linejoin="round"/>
<path d="M9.25319 11.6043H10.2864V12.6375C10.2864 13.0029 10.1412 13.3532 9.88288 13.6116C9.62454 13.8699 9.27415 14.0151 8.9088 14.0151C8.54345 14.0151 8.19307 13.8699 7.93473 13.6116C7.67639 13.3532 7.53125 13.0029 7.53125 12.6375V10.5712C7.53059 10.2354 7.65258 9.91098 7.8743 9.65883C8.09601 9.40668 8.40218 9.24419 8.73527 9.2019C9.06835 9.1596 9.40542 9.24041 9.68312 9.42914C9.96082 9.61787 10.16 9.90153 10.2433 10.2268" stroke="black" stroke-linecap="round" stroke-linejoin="round"/>
<path d="M14.2725 19.0347H4.71875C4.53227 19.0347 4.35343 18.9606 4.22157 18.8287C4.0897 18.6969 4.01562 18.518 4.01562 18.3315V4.26904C4.01562 4.08256 4.0897 3.90372 4.22157 3.77186C4.35343 3.64 4.53227 3.56592 4.71875 3.56592H18.7812C18.9677 3.56592 19.1466 3.64 19.2784 3.77186C19.4103 3.90372 19.4844 4.08256 19.4844 4.26904V13.8228C19.4847 13.9141 19.467 14.0045 19.4323 14.089C19.3976 14.1734 19.3466 14.2502 19.2822 14.3149L14.7646 18.8325C14.6999 18.8969 14.6231 18.9479 14.5387 18.9826C14.4542 19.0173 14.3638 19.035 14.2725 19.0347Z" stroke="black" stroke-width="1.35" stroke-linecap="round" stroke-linejoin="round"/>
<path d="M19.4229 14.1128H16.5625C15.4579 14.1128 14.5625 15.0082 14.5625 16.1128V18.9731" stroke="black" stroke-linecap="round" stroke-linejoin="round"/>
</svg>
