<svg width="23" height="23" viewBox="0 0 23 23" fill="none" xmlns="http://www.w3.org/2000/svg">
<path d="M18.9844 4.26904H3.51562C3.1273 4.26904 2.8125 4.58384 2.8125 4.97217V17.6284C2.8125 18.0167 3.1273 18.3315 3.51562 18.3315H18.9844C19.3727 18.3315 19.6875 18.0167 19.6875 17.6284V4.97217C19.6875 4.58384 19.3727 4.26904 18.9844 4.26904Z" stroke="black" stroke-width="1.35" stroke-linecap="round" stroke-linejoin="round"/>
<path d="M2.8125 14.8157L7.2334 10.3948C7.29882 10.3284 7.37681 10.2756 7.46282 10.2396C7.54882 10.2036 7.64113 10.1851 7.73438 10.1851C7.82762 10.1851 7.91993 10.2036 8.00593 10.2396C8.09194 10.2756 8.16993 10.3284 8.23535 10.3948L12.1553 14.3147C12.2207 14.3812 12.2987 14.4339 12.3847 14.4699C12.4707 14.506 12.563 14.5245 12.6562 14.5245C12.7495 14.5245 12.8418 14.506 12.9278 14.4699C13.0138 14.4339 13.0918 14.3812 13.1572 14.3147L14.9678 12.5042C15.0332 12.4378 15.1112 12.385 15.1972 12.349C15.2832 12.313 15.3755 12.2944 15.4688 12.2944C15.562 12.2944 15.6543 12.313 15.7403 12.349C15.8263 12.385 15.9043 12.4378 15.9697 12.5042L19.6875 16.222" stroke="black" stroke-width="1.35" stroke-linecap="round" stroke-linejoin="round"/>
<path d="M13.7109 9.89404C14.2934 9.89404 14.7656 9.42184 14.7656 8.83936C14.7656 8.25687 14.2934 7.78467 13.7109 7.78467C13.1284 7.78467 12.6562 8.25687 12.6562 8.83936C12.6562 9.42184 13.1284 9.89404 13.7109 9.89404Z" fill="black"/>
</svg>
