<svg width="23" height="23" viewBox="0 0 23 23" fill="none" xmlns="http://www.w3.org/2000/svg">
<path d="M18.2812 8.18457H4.21875C3.83042 8.18457 3.51562 8.49937 3.51562 8.8877V18.7314C3.51562 19.1198 3.83042 19.4346 4.21875 19.4346H18.2812C18.6696 19.4346 18.9844 19.1198 18.9844 18.7314V8.8877C18.9844 8.49937 18.6696 8.18457 18.2812 8.18457Z" stroke="#FAA107" stroke-width="1.35" stroke-linecap="round" stroke-linejoin="round"/>
<path d="M8.08594 8.18457V5.02051C8.08594 4.18135 8.41929 3.37655 9.01267 2.78318C9.60605 2.1898 10.4108 1.85645 11.25 1.85645C12.0892 1.85645 12.894 2.1898 13.4873 2.78318C14.0807 3.37655 14.4141 4.18135 14.4141 5.02051V8.18457" stroke="#FAA107" stroke-width="1.35" stroke-linecap="round" stroke-linejoin="round"/>
<path d="M11.25 14.8643C11.8325 14.8643 12.3047 14.3921 12.3047 13.8096C12.3047 13.2271 11.8325 12.7549 11.25 12.7549C10.6675 12.7549 10.1953 13.2271 10.1953 13.8096C10.1953 14.3921 10.6675 14.8643 11.25 14.8643Z" fill="#FAA107"/>
</svg>
