<svg width="15" height="15" viewBox="0 0 15 15" fill="none" xmlns="http://www.w3.org/2000/svg">
<path d="M7.50117 8.00283C8.49528 8.00283 9.30117 7.19694 9.30117 6.20283C9.30117 5.20872 8.49528 4.40283 7.50117 4.40283C6.50706 4.40283 5.70117 5.20872 5.70117 6.20283C5.70117 7.19694 6.50706 8.00283 7.50117 8.00283Z" stroke="black" stroke-width="0.9" stroke-linecap="round" stroke-linejoin="round"/>
<path d="M12.001 6.20312C12.001 10.2531 7.50098 13.4031 7.50098 13.4031C7.50098 13.4031 3.00098 10.2531 3.00098 6.20312C3.00098 5.00965 3.47508 3.86506 4.319 3.02114C5.16291 2.17723 6.3075 1.70313 7.50098 1.70312C8.69445 1.70313 9.83904 2.17723 10.683 3.02114C11.5269 3.86506 12.001 5.00965 12.001 6.20312V6.20312Z" stroke="black" stroke-width="0.9" stroke-linecap="round" stroke-linejoin="round"/>
</svg>
