<svg width="24" height="23" viewBox="0 0 24 23" fill="none" xmlns="http://www.w3.org/2000/svg">
<path d="M20.0422 10.6477L5.19743 2.33328C5.07239 2.2642 4.92927 2.23485 4.78713 2.24913C4.64499 2.26341 4.51057 2.32065 4.40177 2.41322C4.29297 2.5058 4.21495 2.62932 4.1781 2.76734C4.14124 2.90536 4.14731 3.05133 4.19547 3.18582L6.9904 11.0257C7.05197 11.1779 7.05197 11.3481 6.9904 11.5003L4.19547 19.3401C4.14731 19.4746 4.14124 19.6206 4.1781 19.7586C4.21495 19.8966 4.29297 20.0201 4.40177 20.1127C4.51057 20.2053 4.64499 20.2625 4.78713 20.2768C4.92927 20.2911 5.07239 20.2617 5.19743 20.1927L20.0422 11.8782C20.1521 11.8174 20.2437 11.7283 20.3074 11.6201C20.3712 11.5119 20.4049 11.3886 20.4049 11.263C20.4049 11.1374 20.3712 11.0141 20.3074 10.9059C20.2437 10.7977 20.1521 10.7085 20.0422 10.6477V10.6477Z" stroke="black" stroke-width="1.35" stroke-linecap="round" stroke-linejoin="round"/>
<path d="M7.07812 11.2632H12.7031" stroke="black" stroke-width="1.35" stroke-linecap="round" stroke-linejoin="round"/>
</svg>
