<svg width="30" height="30" viewBox="0 0 30 30" fill="none" xmlns="http://www.w3.org/2000/svg">
<path d="M12.6563 13.125L10.3125 15C10.3125 15 7.67582 15.1758 7.5 15C7.32418 14.8242 5.625 13.3736 5.625 13.125L5.15625 11.25C5.15625 11.0014 5.44919 9.55082 5.62501 9.375C5.80082 9.19918 7.25136 7.96875 7.5 7.96875H9.375C9.62364 7.96875 11.5429 8.26168 11.7188 8.4375C11.8946 8.61332 12.6563 10.0639 12.6563 10.3125V13.125Z" fill="black"/>
<path d="M12.6563 10.3125C12.6563 10.0639 11.8946 8.61332 11.7188 8.4375C11.5429 8.26168 9.62364 7.96875 9.375 7.96875H7.5C7.25136 7.96875 5.80082 9.19918 5.62501 9.375C5.44919 9.55082 5.15625 11.0014 5.15625 11.25L5.625 13.125C5.625 13.3736 7.32418 14.8242 7.5 15C7.67582 15.1758 10.3125 15 10.3125 15L12.6563 13.125V10.3125ZM12.6563 10.3125V18.75C12.6563 19.9932 12.1624 21.1855 11.2833 22.0646C10.4042 22.9436 9.21196 23.4375 7.96876 23.4375" stroke="black" stroke-width="1.35" stroke-linecap="round" stroke-linejoin="round"/>
<path d="M25.7813 13.125L23.4375 15C23.4375 15 20.8008 15.1758 20.625 15C20.4492 14.8242 18.75 13.3736 18.75 13.125L18.2812 11.25C18.2812 11.0014 18.5742 9.55082 18.75 9.375C18.9258 9.19918 20.3764 7.96875 20.625 7.96875H22.5C22.7486 7.96875 24.6679 8.26168 24.8438 8.4375C25.0196 8.61332 25.7813 10.0639 25.7813 10.3125V13.125Z" fill="black"/>
<path d="M25.7813 10.3125C25.7813 10.0639 25.0196 8.61332 24.8438 8.4375C24.6679 8.26168 22.7486 7.96875 22.5 7.96875H20.625C20.3764 7.96875 18.9258 9.19918 18.75 9.375C18.5742 9.55082 18.2812 11.0014 18.2812 11.25L18.75 13.125C18.75 13.3736 20.4492 14.8242 20.625 15C20.8008 15.1758 23.4375 15 23.4375 15L25.7813 13.125V10.3125ZM25.7813 10.3125V18.75C25.7813 19.9932 25.2874 21.1855 24.4083 22.0646C23.5292 22.9436 22.337 23.4375 21.0938 23.4375" stroke="black" stroke-width="2" stroke-linecap="round" stroke-linejoin="round"/>
</svg>
