<svg width="23" height="23" viewBox="0 0 23 23" fill="none" xmlns="http://www.w3.org/2000/svg">
<path d="M14.2285 19.3315C13.425 19.5758 12.5898 19.7001 11.75 19.7007C10.0812 19.7007 8.44992 19.2058 7.06238 18.2787C5.67484 17.3516 4.59338 16.0338 3.95477 14.4921C3.31616 12.9503 3.14907 11.2538 3.47463 9.61711C3.80019 7.9804 4.60378 6.47698 5.78379 5.29697C6.9638 4.11697 8.46721 3.31337 10.1039 2.98781C11.7406 2.66225 13.4371 2.82934 14.9789 3.46795C16.5206 4.10657 17.8384 5.18802 18.7655 6.57556C19.6927 7.9631 20.1875 9.59441 20.1875 11.2632C20.187 12.103 20.0626 12.9382 19.8184 13.7417L14.2285 19.3315Z" stroke="black" stroke-width="1.35" stroke-linecap="round" stroke-linejoin="round"/>
<path d="M8.58594 10.5601C9.16843 10.5601 9.64062 10.0879 9.64062 9.50537C9.64062 8.92288 9.16843 8.45068 8.58594 8.45068C8.00345 8.45068 7.53125 8.92288 7.53125 9.50537C7.53125 10.0879 8.00345 10.5601 8.58594 10.5601Z" fill="black"/>
<path d="M14.9141 10.5601C15.4966 10.5601 15.9688 10.0879 15.9688 9.50537C15.9688 8.92288 15.4966 8.45068 14.9141 8.45068C14.3316 8.45068 13.8594 8.92288 13.8594 9.50537C13.8594 10.0879 14.3316 10.5601 14.9141 10.5601Z" fill="black"/>
<path d="M15.4063 13.3726C15.0346 14.0129 14.5012 14.5444 13.8595 14.9139C13.2179 15.2834 12.4904 15.4779 11.75 15.4779C11.0096 15.4779 10.2821 15.2834 9.64047 14.9139C8.99881 14.5444 8.46545 14.0129 8.09375 13.3726" stroke="black" stroke-width="1.35" stroke-linecap="round" stroke-linejoin="round"/>
</svg>
