<svg width="32" height="32" viewBox="0 0 32 32" fill="none" xmlns="http://www.w3.org/2000/svg">
<path d="M16.0684 15.434C19.2258 15.434 21.7855 12.8744 21.7855 9.71702C21.7855 6.55961 19.2258 4 16.0684 4C12.911 4 10.3514 6.55961 10.3514 9.71702C10.3514 12.8744 12.911 15.434 16.0684 15.434Z" stroke="#0E0E10" stroke-width="2" stroke-linecap="round" stroke-linejoin="round"/>
<path fill-rule="evenodd" clip-rule="evenodd" d="M7.00001 23.3852C6.99882 22.9844 7.08852 22.5871 7.26321 22.2246C7.81002 21.1298 9.35476 20.5495 10.6362 20.2862C11.5599 20.0888 12.4968 19.9572 13.4397 19.8926C15.1854 19.7383 16.9407 19.7383 18.6864 19.8926C19.6281 19.9584 20.5649 20.09 21.4898 20.2862C22.7713 20.5495 24.3148 21.0747 24.8628 22.2246C25.2134 22.9629 25.2134 23.8196 24.8628 24.5578C24.3148 25.7077 22.7713 26.2329 21.4898 26.4854C20.5661 26.69 19.6293 26.8264 18.6864 26.8898C17.265 27.0107 15.8387 27.0322 14.4149 26.9556C14.0858 26.9556 13.7687 26.9557 13.4397 26.8898C12.5004 26.8264 11.5659 26.6912 10.647 26.4854C9.35473 26.2329 7.82198 25.7077 7.26321 24.5578C7.08972 24.1917 7.00001 23.7908 7.00001 23.3852Z" stroke="#0E0E10" stroke-width="2" stroke-linecap="round" stroke-linejoin="round"/>
</svg>
